<svg width="47" height="41" viewBox="0 0 47 41" fill="none" xmlns="http://www.w3.org/2000/svg">
<path d="M23.8132 3.49744C34.3985 3.49744 42.9798 10.9594 42.9798 20.1641V26.4373C42.9798 27.6999 42.1595 28.8541 40.8607 29.4188L35.3132 31.8308V33.4974C35.3132 36.1603 32.9194 38.3369 29.9011 38.4889L29.4671 38.4981C29.5091 38.3184 29.5378 38.1346 29.5522 37.9474L29.5632 37.6641V36.8308C29.5632 35.0734 27.9993 33.6338 26.016 33.5066L25.7298 33.4974H21.8965C19.8756 33.4974 18.22 34.8573 18.0737 36.5819L18.0632 36.8308V37.6641C18.0632 37.9498 18.0962 38.2286 18.1592 38.4981L18.0632 38.4974C14.8875 38.4974 12.3132 36.2589 12.3132 33.4974V31.8308L6.76549 29.4188C5.46682 28.8541 4.64648 27.6999 4.64648 26.4373V20.1641C4.64648 10.9594 13.2277 3.49744 23.8132 3.49744ZM16.1465 18.4974C14.0294 18.4974 12.3132 19.9898 12.3132 21.8308C12.3132 23.6718 14.0294 25.1641 16.1465 25.1641C18.2636 25.1641 19.9798 23.6718 19.9798 21.8308C19.9798 19.9898 18.2636 18.4974 16.1465 18.4974ZM31.4798 18.4974C29.3627 18.4974 27.6465 19.9898 27.6465 21.8308C27.6465 23.6718 29.3627 25.1641 31.4798 25.1641C33.597 25.1641 35.3132 23.6718 35.3132 21.8308C35.3132 19.9898 33.597 18.4974 31.4798 18.4974Z" fill="#ED3D3D"/>
</svg>
