<svg width="51" height="43" viewBox="0 0 51 43" fill="none" xmlns="http://www.w3.org/2000/svg">
<path d="M11.7133 12.1968C14.67 7.48519 19.8792 4.36406 25.81 4.36406C31.7408 4.36406 36.95 7.48519 39.9069 12.1968L43.4281 9.95155C39.7398 4.07424 33.2287 0.164062 25.81 0.164062C18.3914 0.164062 11.8803 4.07424 8.19199 9.95155L11.7133 12.1968ZM25.81 37.9641C19.8792 37.9641 14.67 34.843 11.7133 30.1313L8.19199 32.3766C11.8803 38.2539 18.3914 42.1641 25.81 42.1641C33.2287 42.1641 39.7398 38.2539 43.4281 32.3766L39.9069 30.1313C36.95 34.843 31.7408 37.9641 25.81 37.9641ZM25.8096 21.1641C29.2614 21.1641 32.0596 18.3436 32.0596 14.8641C32.0596 11.3847 29.2614 8.56406 25.8096 8.56406C22.3577 8.56406 19.5596 11.3847 19.5596 14.8641C19.5596 18.3436 22.3577 21.1641 25.8096 21.1641ZM25.8096 23.2641C30.4119 23.2641 34.1429 27.025 34.1429 31.6641H17.4762C17.4762 27.025 21.2072 23.2641 25.8096 23.2641ZM13.3096 21.1641C13.3096 24.6436 10.5113 27.4641 7.05957 27.4641C3.6078 27.4641 0.80957 24.6436 0.80957 21.1641C0.80957 17.6846 3.6078 14.8641 7.05957 14.8641C10.5113 14.8641 13.3096 17.6846 13.3096 21.1641ZM44.5596 27.4641C48.0114 27.4641 50.8096 24.6436 50.8096 21.1641C50.8096 17.6846 48.0114 14.8641 44.5596 14.8641C41.1077 14.8641 38.3096 17.6846 38.3096 21.1641C38.3096 24.6436 41.1077 27.4641 44.5596 27.4641Z" fill="#ED3D3D"/>
</svg>
