<svg width="767" height="536" viewBox="0 0 767 536" fill="none" xmlns="http://www.w3.org/2000/svg">
<g style="mix-blend-mode:color-dodge">
<rect width="13.4403" height="129.026" transform="translate(132.102 40.8657) rotate(45)" fill="black"/>
<ellipse cx="91.2357" cy="91.2353" rx="6.72013" ry="64.5132" transform="rotate(45 91.2357 91.2353)" fill="url(#paint0_radial_6_2738)"/>
</g>
<g style="mix-blend-mode:color-dodge">
<rect width="13.4403" height="129.026" transform="translate(40.8657 50.3694) rotate(-45)" fill="black"/>
<ellipse cx="91.2353" cy="91.2353" rx="6.72013" ry="64.5132" transform="rotate(-45 91.2353 91.2353)" fill="url(#paint1_radial_6_2738)"/>
</g>
<g style="mix-blend-mode:color-dodge">
<rect width="13.4403" height="129.026" transform="translate(293.455 64.2188) rotate(45)" fill="black"/>
<ellipse cx="252.589" cy="114.588" rx="6.72013" ry="64.5132" transform="rotate(45 252.589 114.588)" fill="url(#paint2_radial_6_2738)"/>
</g>
<g style="mix-blend-mode:color-dodge">
<rect width="13.4403" height="129.026" transform="translate(202.219 73.7224) rotate(-45)" fill="black"/>
<ellipse cx="252.589" cy="114.588" rx="6.72013" ry="64.5132" transform="rotate(-45 252.589 114.588)" fill="url(#paint3_radial_6_2738)"/>
</g>
<g style="mix-blend-mode:color-dodge">
<rect width="13.4403" height="129.026" transform="translate(367.455 142.219) rotate(45)" fill="black"/>
<ellipse cx="326.589" cy="192.588" rx="6.72013" ry="64.5132" transform="rotate(45 326.589 192.588)" fill="url(#paint4_radial_6_2738)"/>
</g>
<g style="mix-blend-mode:color-dodge">
<rect width="13.4403" height="129.026" transform="translate(276.219 151.722) rotate(-45)" fill="black"/>
<ellipse cx="326.589" cy="192.588" rx="6.72013" ry="64.5132" transform="rotate(-45 326.589 192.588)" fill="url(#paint5_radial_6_2738)"/>
</g>
<g style="mix-blend-mode:color-dodge">
<rect width="9.57541" height="91.9239" transform="translate(457.704 243.703) rotate(45)" fill="black"/>
<ellipse cx="428.589" cy="279.588" rx="4.7877" ry="45.962" transform="rotate(45 428.589 279.588)" fill="url(#paint6_radial_6_2738)"/>
</g>
<g style="mix-blend-mode:color-dodge">
<rect width="9.5754" height="91.9239" transform="translate(392.704 250.474) rotate(-45)" fill="black"/>
<ellipse cx="428.589" cy="279.588" rx="4.7877" ry="45.962" transform="rotate(-45 428.589 279.588)" fill="url(#paint7_radial_6_2738)"/>
</g>
<g style="mix-blend-mode:color-dodge">
<rect width="12.669" height="121.622" transform="translate(455.875 341.874) rotate(45)" fill="black"/>
<ellipse cx="417.354" cy="389.353" rx="6.3345" ry="60.8111" transform="rotate(45 417.354 389.353)" fill="url(#paint8_radial_6_2738)"/>
</g>
<g style="mix-blend-mode:color-dodge">
<rect width="12.669" height="121.622" transform="translate(369.875 350.832) rotate(-45)" fill="black"/>
<ellipse cx="417.354" cy="389.353" rx="6.33449" ry="60.8111" transform="rotate(-45 417.354 389.353)" fill="url(#paint9_radial_6_2738)"/>
</g>
<g style="mix-blend-mode:color-dodge">
<rect width="18.5616" height="178.191" transform="translate(727.792 274.791) rotate(45)" fill="black"/>
<ellipse cx="671.354" cy="344.353" rx="9.28079" ry="89.0955" transform="rotate(45 671.354 344.353)" fill="url(#paint10_radial_6_2738)"/>
</g>
<g style="mix-blend-mode:color-dodge">
<rect width="18.5616" height="178.191" transform="translate(601.791 287.916) rotate(-45)" fill="black"/>
<ellipse cx="671.354" cy="344.353" rx="9.28078" ry="89.0955" transform="rotate(-45 671.354 344.353)" fill="url(#paint11_radial_6_2738)"/>
</g>
<g style="mix-blend-mode:color-dodge">
<rect width="12.2271" height="117.38" transform="translate(639.531 406.53) rotate(45)" fill="black"/>
<ellipse cx="602.354" cy="452.353" rx="6.11353" ry="58.6899" transform="rotate(45 602.354 452.353)" fill="url(#paint12_radial_6_2738)"/>
</g>
<g style="mix-blend-mode:color-dodge">
<rect width="12.227" height="117.38" transform="translate(556.531 415.176) rotate(-45)" fill="black"/>
<ellipse cx="602.354" cy="452.353" rx="6.11352" ry="58.6899" transform="rotate(-45 602.354 452.353)" fill="url(#paint13_radial_6_2738)"/>
</g>
<defs>
<radialGradient id="paint0_radial_6_2738" cx="0" cy="0" r="1" gradientUnits="userSpaceOnUse" gradientTransform="translate(91.2357 91.2353) rotate(90) scale(64.5132 6.72013)">
<stop offset="0.0364583" stop-color="#FFF1E4"/>
<stop offset="1" stop-color="#3A71FF" stop-opacity="0"/>
</radialGradient>
<radialGradient id="paint1_radial_6_2738" cx="0" cy="0" r="1" gradientUnits="userSpaceOnUse" gradientTransform="translate(91.2353 91.2353) rotate(90) scale(64.5132 6.72013)">
<stop offset="0.0364583" stop-color="#FFF1E4"/>
<stop offset="1" stop-color="#3A71FF" stop-opacity="0"/>
</radialGradient>
<radialGradient id="paint2_radial_6_2738" cx="0" cy="0" r="1" gradientUnits="userSpaceOnUse" gradientTransform="translate(252.589 114.588) rotate(90) scale(64.5132 6.72013)">
<stop offset="0.0364583" stop-color="#FFF1E4"/>
<stop offset="1" stop-color="#3A71FF" stop-opacity="0"/>
</radialGradient>
<radialGradient id="paint3_radial_6_2738" cx="0" cy="0" r="1" gradientUnits="userSpaceOnUse" gradientTransform="translate(252.589 114.588) rotate(90) scale(64.5132 6.72013)">
<stop offset="0.0364583" stop-color="#FFF1E4"/>
<stop offset="1" stop-color="#3A71FF" stop-opacity="0"/>
</radialGradient>
<radialGradient id="paint4_radial_6_2738" cx="0" cy="0" r="1" gradientUnits="userSpaceOnUse" gradientTransform="translate(326.589 192.588) rotate(90) scale(64.5132 6.72013)">
<stop offset="0.0364583" stop-color="#FFF1E4"/>
<stop offset="1" stop-color="#3A71FF" stop-opacity="0"/>
</radialGradient>
<radialGradient id="paint5_radial_6_2738" cx="0" cy="0" r="1" gradientUnits="userSpaceOnUse" gradientTransform="translate(326.589 192.588) rotate(90) scale(64.5132 6.72013)">
<stop offset="0.0364583" stop-color="#FFF1E4"/>
<stop offset="1" stop-color="#3A71FF" stop-opacity="0"/>
</radialGradient>
<radialGradient id="paint6_radial_6_2738" cx="0" cy="0" r="1" gradientUnits="userSpaceOnUse" gradientTransform="translate(428.589 279.588) rotate(90) scale(45.962 4.7877)">
<stop offset="0.0364583" stop-color="#FFF1E4"/>
<stop offset="1" stop-color="#3A71FF" stop-opacity="0"/>
</radialGradient>
<radialGradient id="paint7_radial_6_2738" cx="0" cy="0" r="1" gradientUnits="userSpaceOnUse" gradientTransform="translate(428.589 279.588) rotate(90) scale(45.962 4.7877)">
<stop offset="0.0364583" stop-color="#FFF1E4"/>
<stop offset="1" stop-color="#3A71FF" stop-opacity="0"/>
</radialGradient>
<radialGradient id="paint8_radial_6_2738" cx="0" cy="0" r="1" gradientUnits="userSpaceOnUse" gradientTransform="translate(417.354 389.353) rotate(90) scale(60.8111 6.33449)">
<stop offset="0.0364583" stop-color="#FFF1E4"/>
<stop offset="1" stop-color="#3A71FF" stop-opacity="0"/>
</radialGradient>
<radialGradient id="paint9_radial_6_2738" cx="0" cy="0" r="1" gradientUnits="userSpaceOnUse" gradientTransform="translate(417.354 389.353) rotate(90) scale(60.8111 6.33449)">
<stop offset="0.0364583" stop-color="#FFF1E4"/>
<stop offset="1" stop-color="#3A71FF" stop-opacity="0"/>
</radialGradient>
<radialGradient id="paint10_radial_6_2738" cx="0" cy="0" r="1" gradientUnits="userSpaceOnUse" gradientTransform="translate(671.354 344.353) rotate(90) scale(89.0955 9.28079)">
<stop offset="0.0364583" stop-color="#FFF1E4"/>
<stop offset="1" stop-color="#3A71FF" stop-opacity="0"/>
</radialGradient>
<radialGradient id="paint11_radial_6_2738" cx="0" cy="0" r="1" gradientUnits="userSpaceOnUse" gradientTransform="translate(671.354 344.353) rotate(90) scale(89.0955 9.28078)">
<stop offset="0.0364583" stop-color="#FFF1E4"/>
<stop offset="1" stop-color="#3A71FF" stop-opacity="0"/>
</radialGradient>
<radialGradient id="paint12_radial_6_2738" cx="0" cy="0" r="1" gradientUnits="userSpaceOnUse" gradientTransform="translate(602.354 452.353) rotate(90) scale(58.6899 6.11353)">
<stop offset="0.0364583" stop-color="#FFF1E4"/>
<stop offset="1" stop-color="#3A71FF" stop-opacity="0"/>
</radialGradient>
<radialGradient id="paint13_radial_6_2738" cx="0" cy="0" r="1" gradientUnits="userSpaceOnUse" gradientTransform="translate(602.354 452.353) rotate(90) scale(58.6899 6.11352)">
<stop offset="0.0364583" stop-color="#FFF1E4"/>
<stop offset="1" stop-color="#3A71FF" stop-opacity="0"/>
</radialGradient>
</defs>
</svg>
