<svg width="480" height="320" viewBox="0 0 480 320" fill="none" xmlns="http://www.w3.org/2000/svg">
<rect width="480" height="320" fill="#E4E4E7"/>
<path d="M235.136 166.534V165.955C235.148 163.966 235.324 162.381 235.665 161.199C236.017 160.017 236.528 159.062 237.199 158.335C237.869 157.608 238.676 156.949 239.619 156.358C240.324 155.903 240.955 155.432 241.511 154.943C242.068 154.455 242.511 153.915 242.841 153.324C243.17 152.722 243.335 152.051 243.335 151.312C243.335 150.528 243.148 149.841 242.773 149.25C242.398 148.659 241.892 148.205 241.256 147.886C240.631 147.568 239.938 147.409 239.176 147.409C238.438 147.409 237.739 147.574 237.08 147.903C236.42 148.222 235.881 148.699 235.46 149.335C235.04 149.96 234.813 150.739 234.778 151.67H227.824C227.881 149.398 228.426 147.523 229.46 146.045C230.494 144.557 231.864 143.449 233.568 142.722C235.273 141.983 237.153 141.614 239.21 141.614C241.472 141.614 243.472 141.989 245.21 142.739C246.949 143.477 248.313 144.551 249.301 145.96C250.29 147.369 250.784 149.068 250.784 151.057C250.784 152.386 250.563 153.568 250.119 154.602C249.688 155.625 249.08 156.534 248.295 157.33C247.511 158.114 246.585 158.824 245.517 159.46C244.619 159.994 243.881 160.551 243.301 161.131C242.733 161.71 242.307 162.381 242.023 163.142C241.75 163.903 241.608 164.841 241.597 165.955V166.534H235.136ZM238.511 177.443C237.375 177.443 236.403 177.045 235.597 176.25C234.801 175.443 234.409 174.477 234.42 173.352C234.409 172.239 234.801 171.284 235.597 170.489C236.403 169.693 237.375 169.295 238.511 169.295C239.591 169.295 240.54 169.693 241.358 170.489C242.176 171.284 242.591 172.239 242.602 173.352C242.591 174.102 242.392 174.79 242.006 175.415C241.631 176.028 241.136 176.523 240.523 176.898C239.909 177.261 239.239 177.443 238.511 177.443Z" fill="black"/>
</svg>
